<?xml version="1.0" encoding="UTF-8" standalone="no"?>
<!-- Created with Inkscape (http://www.inkscape.org/) -->

<svg
   version="1.1"
   id="svg2"
   width="229.33333"
   height="229.33333"
   viewBox="0 0 229.33333 229.33333"
   sodipodi:docname="press_zklogo2.eps"
   xmlns:inkscape="http://www.inkscape.org/namespaces/inkscape"
   xmlns:sodipodi="http://sodipodi.sourceforge.net/DTD/sodipodi-0.dtd"
   xmlns="http://www.w3.org/2000/svg"
   xmlns:svg="http://www.w3.org/2000/svg">
  <defs
     id="defs6" />
  <sodipodi:namedview
     id="namedview4"
     pagecolor="#ffffff"
     bordercolor="#000000"
     borderopacity="0.25"
     inkscape:showpageshadow="2"
     inkscape:pageopacity="0.0"
     inkscape:pagecheckerboard="0"
     inkscape:deskcolor="#d1d1d1" />
  <g
     id="g8"
     inkscape:groupmode="layer"
     inkscape:label="ink_ext_XXXXXX"
     transform="matrix(1.3333333,0,0,-1.3333333,0,229.33333)">
    <g
       id="g10"
       transform="scale(0.1)">
      <path
         d="m 1360,410 c 0,-27.5 -22.5,-50 -50,-50 H 410 c -27.5,0 -50,22.5 -50,50 v 900 c 0,27.5 22.5,50 50,50 h 900 c 27.5,0 50,-22.5 50,-50 V 410"
         style="fill:#3584b6;fill-opacity:1;fill-rule:nonzero;stroke:none"
         id="path12" />
      <path
         d="M 790.129,716.68 H 648.355 c -30.988,0 -58.667,9.609 -82.964,28.925 -21.953,17.461 -36.602,38.848 -43.868,64.305 -0.046,0.305 -0.121,0.578 -0.121,0.832 0,3.953 3.161,7.09 7.137,7.422 h 296.563 c 3.457,0.234 6.265,2.617 6.972,5.781 0.071,0.528 0.133,1.075 0.172,1.602 0.723,5.801 1.082,11.777 1.082,17.937 0,49.364 -17.973,91.336 -53.89,125.832 -35.942,34.474 -79.657,51.744 -131.083,51.744 H 505.238 c -1.945,0.07 -3.859,0.19 -5.711,0.36 -14.425,0.73 -27.148,3.49 -36.125,7.57 v -7.93 -29.165 c 0.172,-11.653 19.707,-21.09 44.164,-21.582 h 140.789 c 31.708,0 59.54,-9.493 83.52,-28.442 21.664,-17.098 36.121,-38.726 43.395,-64.746 0.043,-0.277 0.066,-0.531 0.066,-0.82 0,-4.02 -3.32,-7.301 -7.453,-7.41 v -0.04 H 471.965 c -3.621,-0.105 -6.621,-2.585 -7.317,-5.906 -0.015,-0.019 -0.015,-0.097 -0.039,-0.097 -0.796,-6.25 -1.207,-12.754 -1.207,-19.368 0,-48.718 18.145,-90.476 54.442,-125.285 36.258,-34.84 79.777,-52.238 130.511,-52.238 h 142.45 c 0.328,0 0.625,-0.039 0.965,-0.039 16.691,-0.262 31.558,-3.211 41.558,-7.813 v 7.852 29.219 c -0.254,11.48 -19.246,20.8 -43.199,21.5"
         style="fill:#ffffff;fill-opacity:1;fill-rule:nonzero;stroke:none"
         id="path14" />
      <path
         d="m 1253.46,696.27 c -0.02,0.25 -0.04,0.468 -0.05,0.742 v 11.797 c 0,64.589 -27.9,114.082 -83.64,148.464 -6.21,3.274 -10.51,4.25 -10.51,4.25 3.92,0.079 9.04,2.493 12.87,4.649 39.02,24.742 63.99,57.109 74.91,97.043 0.68,2.605 1.36,5.238 1.95,7.863 4.19,20.926 -0.41,39.012 -11.37,41.852 -0.49,0.14 -0.98,0.18 -1.46,0.23 h -38.91 c 1.81,-7.22 2.2,-16.156 0.82,-25.672 -4.87,-24.308 -16.9,-45.668 -36.08,-64.109 -25.77,-24.684 -56.94,-37.051 -93.57,-37.051 -47.2,0 -88.178,-15.098 -122.885,-45.305 -9.344,-8.621 -9.234,-14.605 -9.234,-14.605 v 12.469 h 0.008 v 309.683 c -0.723,22.51 -10.008,40.41 -21.602,41.43 H 874.52 c 4.71,-8.77 7.953,-21.86 8.683,-36.79 0.117,-1.35 0.164,-2.66 0.254,-4.03 V 699.141 c -0.039,-0.743 -0.09,-1.442 -0.117,-2.129 -0.117,-15.391 -2.871,-29.184 -7.246,-38.903 h 38.34 c 11.882,0.782 21.425,19.313 21.875,42.422 v 8.278 c 0,35.156 12.851,65.097 38.586,89.746 25.695,24.726 56.885,37.07 93.525,37.07 37.36,0 68.71,-12.156 94.06,-36.543 25.38,-24.375 38.06,-54.434 38.06,-90.273 v -11.27 c 1.14,-21.289 10.07,-38.027 21.06,-39.43 h 38.4 c -4.04,9.801 -6.54,23.282 -6.54,38.161"
         style="fill:#ffffff;fill-opacity:1;fill-rule:nonzero;stroke:none"
         id="path16" />
      <path
         d="m 519.879,538.789 h 26.129 c 8.64,0 14.773,1.609 18.406,4.82 3.633,3.219 5.449,7.75 5.449,13.59 0,4.231 -1.07,7.84 -3.207,10.86 -2.14,3 -4.953,5 -8.449,5.953 -2.25,0.609 -6.41,0.898 -12.477,0.898 H 519.879 Z M 506.504,485.77 v 101.082 h 38.125 c 6.711,0 11.836,-0.332 15.371,-0.973 4.965,-0.828 9.125,-2.399 12.48,-4.731 3.356,-2.316 6.055,-5.57 8.102,-9.75 2.047,-4.179 3.066,-8.777 3.066,-13.789 0,-8.597 -2.734,-15.871 -8.203,-21.82 -5.468,-5.957 -15.351,-8.918 -29.644,-8.918 H 519.879 V 485.77 h -13.375"
         style="fill:#ffffff;fill-opacity:1;fill-rule:nonzero;stroke:none"
         id="path18" />
      <path
         d="m 610.398,534.789 c 0,-12.18 3.274,-21.769 9.829,-28.777 6.546,-7.024 14.757,-10.524 24.64,-10.524 10.071,0 18.352,3.543 24.856,10.621 6.504,7.071 9.754,17.121 9.754,30.129 0,8.223 -1.391,15.41 -4.168,21.543 -2.786,6.141 -6.852,10.891 -12.204,14.27 -5.355,3.379 -11.367,5.07 -18.027,5.07 -9.469,0 -17.617,-3.25 -24.441,-9.762 -6.824,-6.5 -10.239,-17.359 -10.239,-32.57 z M 596.609,535 c 0,16.77 4.504,29.898 13.512,39.391 9.012,9.5 20.641,14.238 34.891,14.238 9.324,0 17.738,-2.219 25.226,-6.688 7.492,-4.453 13.203,-10.671 17.133,-18.64 3.934,-7.981 5.895,-17.02 5.895,-27.129 0,-10.25 -2.067,-19.422 -6.203,-27.512 -4.137,-8.09 -9.997,-14.219 -17.583,-18.379 -7.582,-4.16 -15.765,-6.23 -24.542,-6.23 -9.512,0 -18.02,2.301 -25.508,6.89 -7.492,4.598 -13.164,10.868 -17.028,18.829 -3.863,7.941 -5.793,16.351 -5.793,25.23"
         style="fill:#ffffff;fill-opacity:1;fill-rule:nonzero;stroke:none"
         id="path20" />
      <path
         d="m 728.148,485.77 -26.816,101.082 h 13.723 l 15.371,-66.262 c 1.652,-6.949 3.082,-13.84 4.277,-20.692 2.57,10.801 4.086,17.032 4.551,18.684 l 19.23,68.27 h 16.133 l 14.481,-51.172 c 3.629,-12.68 6.25,-24.61 7.859,-35.782 1.285,6.391 2.965,13.723 5.031,21.993 l 15.86,64.961 h 13.441 L 803.574,485.77 h -12.89 l -21.305,77.011 c -1.789,6.438 -2.852,10.379 -3.172,11.86 -1.055,-4.641 -2.047,-8.602 -2.965,-11.86 L 741.801,485.77 h -13.653"
         style="fill:#ffffff;fill-opacity:1;fill-rule:nonzero;stroke:none"
         id="path22" />
      <path
         d="m 844.043,485.77 v 101.082 h 73.074 V 574.91 h -59.699 v -30.949 h 55.91 v -11.859 h -55.91 v -34.403 h 62.047 V 485.77 h -75.422"
         style="fill:#ffffff;fill-opacity:1;fill-rule:nonzero;stroke:none"
         id="path24" />
      <path
         d="m 951.523,542.238 h 28.75 c 6.114,0 10.899,0.633 14.336,1.891 3.45,1.262 6.071,3.281 7.861,6.07 1.8,2.781 2.7,5.801 2.7,9.071 0,4.769 -1.74,8.699 -5.209,11.781 -3.477,3.078 -8.953,4.621 -16.445,4.621 H 951.523 Z M 938.152,485.77 v 101.082 h 44.809 c 9.012,0 15.855,-0.911 20.549,-2.731 4.68,-1.82 8.43,-5.031 11.24,-9.621 2.8,-4.602 4.21,-9.68 4.21,-15.23 0,-7.18 -2.33,-13.231 -6.97,-18.141 -4.65,-4.918 -11.81,-8.039 -21.51,-9.367 3.536,-1.703 6.231,-3.383 8.067,-5.043 3.903,-3.59 7.603,-8.071 11.103,-13.438 l 17.58,-27.511 h -16.83 l -13.369,21.031 c -3.918,6.058 -7.129,10.711 -9.66,13.918 -2.527,3.23 -4.781,5.472 -6.785,6.761 -2,1.29 -4.031,2.192 -6.106,2.692 -1.511,0.316 -3.992,0.476 -7.437,0.476 h -15.52 V 485.77 h -13.371"
         style="fill:#ffffff;fill-opacity:1;fill-rule:nonzero;stroke:none"
         id="path26" />
      <path
         d="m 1040.19,485.77 v 101.082 h 73.07 V 574.91 h -59.71 v -30.949 h 55.92 v -11.859 h -55.92 v -34.403 h 62.06 V 485.77 h -75.42"
         style="fill:#ffffff;fill-opacity:1;fill-rule:nonzero;stroke:none"
         id="path28" />
      <path
         d="m 1147.46,497.699 h 21.58 c 6.66,0 11.89,0.621 15.69,1.86 3.79,1.242 6.8,2.992 9.06,5.23 3.17,3.18 5.64,7.449 7.41,12.801 1.77,5.351 2.66,11.84 2.66,19.469 0,10.582 -1.74,18.703 -5.21,24.382 -3.47,5.668 -7.68,9.481 -12.65,11.399 -3.59,1.39 -9.35,2.07 -17.31,2.07 h -21.23 z m -13.38,-11.929 v 101.082 h 34.83 c 7.85,0 13.85,-0.493 17.98,-1.461 5.8,-1.332 10.74,-3.743 14.83,-7.243 5.33,-4.5 9.32,-10.257 11.96,-17.257 2.64,-7.012 3.97,-15.02 3.97,-24.032 0,-7.679 -0.9,-14.48 -2.7,-20.398 -1.79,-5.941 -4.09,-10.84 -6.89,-14.731 -2.81,-3.878 -5.87,-6.941 -9.2,-9.171 -3.33,-2.231 -7.36,-3.918 -12.06,-5.071 -4.72,-1.136 -10.13,-1.718 -16.24,-1.718 h -36.48"
         style="fill:#ffffff;fill-opacity:1;fill-rule:nonzero;stroke:none"
         id="path30" />
      <path
         d="M 270,360 H 0"
         style="fill:none;stroke:#100f0d;stroke-width:5;stroke-linecap:butt;stroke-linejoin:miter;stroke-miterlimit:4;stroke-dasharray:none;stroke-opacity:1"
         id="path32" />
      <path
         d="M 360,270 V 0"
         style="fill:none;stroke:#100f0d;stroke-width:5;stroke-linecap:butt;stroke-linejoin:miter;stroke-miterlimit:4;stroke-dasharray:none;stroke-opacity:1"
         id="path34" />
      <path
         d="M 270,1360 H 0"
         style="fill:none;stroke:#100f0d;stroke-width:5;stroke-linecap:butt;stroke-linejoin:miter;stroke-miterlimit:4;stroke-dasharray:none;stroke-opacity:1"
         id="path36" />
      <path
         d="m 360,1450 v 270"
         style="fill:none;stroke:#100f0d;stroke-width:5;stroke-linecap:butt;stroke-linejoin:miter;stroke-miterlimit:4;stroke-dasharray:none;stroke-opacity:1"
         id="path38" />
      <path
         d="m 1450,1360 h 270"
         style="fill:none;stroke:#100f0d;stroke-width:5;stroke-linecap:butt;stroke-linejoin:miter;stroke-miterlimit:4;stroke-dasharray:none;stroke-opacity:1"
         id="path40" />
      <path
         d="m 1360,1450 v 270"
         style="fill:none;stroke:#100f0d;stroke-width:5;stroke-linecap:butt;stroke-linejoin:miter;stroke-miterlimit:4;stroke-dasharray:none;stroke-opacity:1"
         id="path42" />
      <path
         d="m 1450,360 h 270"
         style="fill:none;stroke:#100f0d;stroke-width:5;stroke-linecap:butt;stroke-linejoin:miter;stroke-miterlimit:4;stroke-dasharray:none;stroke-opacity:1"
         id="path44" />
      <path
         d="M 1360,270 V 0"
         style="fill:none;stroke:#100f0d;stroke-width:5;stroke-linecap:butt;stroke-linejoin:miter;stroke-miterlimit:4;stroke-dasharray:none;stroke-opacity:1"
         id="path46" />
    </g>
  </g>
</svg>
